# xmcd
#
# Track frame offsets: 
#        150
#        12505
#        24476
#        37676
#        51006
#        63561
#        78108
#        91449
#        104880
#        118127
#        130836
#        144404
#        157441
#        172273
#        187518
#        202400
#        215201
#        228824
#        245310
#
# Disc length: 3472 seconds
#
# Revision: 3
# Processed by: cddbd v1.5.2PL0 Copyright (c) Steve Scherf et al.
# Submitted via: ExactAudioCopyFreeDBPlugin 1.0
#
DISCID=120d8e13
DTITLE=Blind Blake - All The Published Sides - Disc 4 [D]
DYEAR=2003
DGENRE=Blues
TTITLE0=Poker Woman Blues (1929)
TTITLE1=Doing A Stretch (1929)
TTITLE2=Fightin' The Jug (1929)
TTITLE3=Hookworm Blues (1929)
TTITLE4=Slippery Rag (1929)
TTITLE5=Hastings St (1929)
TTITLE6=Diddie Wah Diddie (1930)
TTITLE7=Diddie Wah Diddie (alternate take) (1930)
TTITLE8=Too Tight Blues No 2 (1930)
TTITLE9=Chump Man Blues (1930)
TTITLE10=Ice Man Blues (1930)
TTITLE11=Police Dog Blues (1930)
TTITLE12=I Was Afraid Of That Part 2 (1930)
TTITLE13=Georgia Bound (193)
TTITLE14=Keep It Home (1930
TTITLE15=Keep It Home (alternate take) (1930)
TTITLE16=Sweet Jivin' Mama (193)
TTITLE17=Lonesome Christmas Blues (1930)
TTITLE18=Third Degree Blues (1931)
EXTD=
EXTT0=
EXTT1=
EXTT2=
EXTT3=
EXTT4=
EXTT5=
EXTT6=
EXTT7=
EXTT8=
EXTT9=
EXTT10=
EXTT11=
EXTT12=
EXTT13=
EXTT14=
EXTT15=
EXTT16=
EXTT17=
EXTT18=
PLAYORDER=
